<?xml version="1.0" standalone="no"?>
<!DOCTYPE svg PUBLIC "-//W3C//DTD SVG 20010904//EN"
 "http://www.w3.org/TR/2001/REC-SVG-20010904/DTD/svg10.dtd">
<svg version="1.0" xmlns="http://www.w3.org/2000/svg"
 width="300.000000pt" height="300.000000pt" viewBox="0 0 300.000000 300.000000"
 preserveAspectRatio="xMidYMid meet">
<metadata>
Created by potrace 1.11, written by Peter Selinger 2001-2013
</metadata>
<g transform="translate(0.000000,300.000000) scale(0.100000,-0.100000)"
fill="#000000" stroke="none">
<path d="M342 2182 l3 -528 38 -76 c45 -92 122 -167 217 -212 l65 -31 331 -3
330 -3 177 203 176 203 1 488 0 487 -241 -2 -242 -3 -14 -40 c-17 -49 -39 -73
-95 -99 -36 -18 -44 -28 -59 -75 -19 -59 -42 -83 -99 -100 -46 -14 -62 -31
-94 -103 l-25 -58 250 0 249 0 -2 -227 -3 -228 -220 -3 c-121 -1 -230 0 -242
3 -12 3 -32 15 -43 27 -19 21 -20 34 -20 465 l0 443 -220 0 -221 0 3 -528z"/>
<path d="M1750 2020 l0 -690 185 0 185 0 0 450 0 450 131 0 130 0 29 63 c32
70 48 88 105 111 55 23 73 43 86 90 14 52 25 65 74 86 48 21 60 34 79 88 l15
42 -509 0 -510 0 0 -690z"/>
<path d="M1397 1150 c-164 -41 -259 -174 -228 -316 24 -108 96 -160 299 -218
146 -42 163 -49 185 -74 50 -55 -13 -122 -115 -122 -97 0 -142 30 -158 105
l-6 30 -117 3 -117 3 0 -40 c0 -63 35 -142 82 -188 77 -74 165 -103 310 -103
226 0 363 98 376 270 6 87 -10 139 -57 188 -49 51 -121 84 -251 117 -181 46
-222 75 -186 130 20 30 51 39 122 33 61 -5 104 -36 104 -75 0 -23 1 -23 121
-23 l122 0 -5 50 c-9 93 -95 189 -196 221 -48 15 -236 21 -285 9z"/>
<path d="M2225 1142 c-118 -41 -205 -117 -256 -225 -129 -277 3 -601 276 -673
59 -16 172 -18 233 -4 153 36 268 159 288 309 l7 51 -122 0 c-107 0 -121 -2
-121 -17 0 -9 -9 -36 -21 -60 -27 -55 -77 -83 -150 -83 -77 0 -130 34 -166
107 -24 51 -28 69 -28 148 0 80 3 97 30 150 41 82 84 107 177 103 80 -4 113
-24 143 -86 l20 -41 119 -1 119 0 -6 45 c-17 124 -127 236 -274 280 -66 20
-205 19 -268 -3z"/>
<path d="M340 695 l0 -445 120 0 120 0 0 180 0 180 145 0 145 0 0 -180 0 -180
120 0 120 0 0 445 0 445 -120 0 -120 0 0 -160 0 -161 -142 3 -143 3 -3 158 -3
157 -119 0 -120 0 0 -445z"/>
</g>
</svg>
