<?xml version="1.0" encoding="utf-8"?>
<!-- Generator: Adobe Illustrator 20.1.0, SVG Export Plug-In . SVG Version: 6.00 Build 0)  -->
<svg version="1.1" id="Layer_1" xmlns="http://www.w3.org/2000/svg" xmlns:xlink="http://www.w3.org/1999/xlink" x="0px" y="0px"
	 viewBox="0 0 512 41.6" style="enable-background:new 0 0 512 41.6;" xml:space="preserve">
<style type="text/css">
	.st0{fill:#010101;}
	.st1{fill:#010101;stroke:#010101;stroke-width:0.2025;stroke-miterlimit:10;}
</style>
<g>
	<g>
		<path class="st0" d="M61.3,14.3h-7.7v26.8H42.1V-0.1h31c-0.6,0.6-0.4,1.6-1.3,2.9c-1.1,1.5-2.3,0.8-3.2,1.9
			c-0.9,1-0.5,2.1-1.3,3.2c-1.1,1.5-2.9,1-4.1,2.6C62.2,11.8,62.2,13,61.3,14.3"/>
		<path class="st0" d="M25.9,0c-0.6,0.6-0.5,1.7-1.3,2.9c-1.1,1.5-2.3,0.8-3.2,1.9c-0.9,1-0.5,2.1-1.3,3.2C19,9.5,17.2,9,16,10.6
			c-1,1.3-1,2.5-1.9,3.8h15v13.4H16.6c-1,0-1.9,0.1-2.6-0.6c-0.5-0.6-0.6-1.1-0.6-1.9V0.1H0v29.1c0,3.4,2.2,6.7,3.5,8
			c1.6,1.6,4.9,4.2,8.6,4.2h17.5l10.5-12.1l0.1-29.1H25.9"/>
	</g>
	<g>
		<path class="st1" d="M90.5,1.6h-3.6c-0.4,0-0.6,0.1-0.7,0.2s-0.1,0.4-0.1,0.8v12.7v0.5c0,1,0.6,1.6,1.7,1.8
			c0.3,0.1,0.5,0.1,0.5,0.3s-0.1,0.3-0.4,0.3c-0.1,0-0.3,0-0.6-0.1c-0.2,0-0.6,0-1.2,0h-0.9h-1c-0.4,0-0.7,0-0.9,0
			c-0.5,0.1-0.8,0.1-0.9,0.1c-0.3,0-0.4-0.1-0.4-0.3c0-0.1,0.1-0.2,0.4-0.3c0.7-0.1,1.1-0.3,1.3-0.6c0.2-0.3,0.4-0.8,0.4-1.5V2.6
			V2.3c0-0.3,0-0.5-0.1-0.6s-0.3-0.1-0.6-0.1H80c-0.7,0-1.2,0.1-1.5,0.4s-0.6,0.8-0.7,1.6c-0.1,0.3-0.2,0.5-0.4,0.5
			c-0.2,0-0.2-0.1-0.2-0.3c0-0.2,0.1-0.5,0.2-1c0.1-0.6,0.2-1.1,0.2-1.5s0-0.7,0.1-0.8c0.1-0.1,0.3-0.2,0.6-0.2h14
			c0.5,0,0.8,0.1,0.9,0.2s0.2,0.4,0.2,0.9s0,0.9,0.1,1.1c0,0.3,0.1,0.5,0.1,0.6c0,0.3-0.1,0.4-0.3,0.4c-0.2,0-0.3-0.1-0.3-0.4
			c-0.1-0.6-0.3-1-0.5-1.2C91.7,1.7,91.2,1.6,90.5,1.6z"/>
		<path class="st1" d="M100.7,8.3h7.7c0.4,0,0.6,0,0.7-0.1c0.1-0.1,0.2-0.2,0.2-0.5V3.3c0-0.9-0.1-1.5-0.3-1.9s-0.7-0.6-1.3-0.8
			c-0.3-0.1-0.4-0.2-0.4-0.3c0-0.1,0.1-0.2,0.3-0.2s0.5,0,0.9,0.1c0.6,0.1,1.2,0.1,1.8,0.1c0.9,0,1.6,0,1.9-0.1
			c0.2,0,0.4-0.1,0.5-0.1c0.2,0,0.3,0.1,0.3,0.3c0,0.1-0.1,0.2-0.3,0.3l-0.5,0.1c-0.3,0.1-0.5,0.2-0.7,0.6c-0.2,0.3-0.3,0.7-0.3,1.1
			V15c0,0.9,0.1,1.6,0.4,1.9c0.3,0.4,0.8,0.6,1.5,0.6c0.3,0,0.4,0.1,0.4,0.3s-0.1,0.3-0.4,0.3c-0.2,0-0.4,0-0.7-0.1
			c-0.2,0-0.6-0.1-1.3-0.1h-1h-1c-0.2,0-0.4,0-0.6,0c-0.5,0-0.8,0.1-0.9,0.1c-0.2,0-0.3-0.1-0.3-0.3s0.2-0.2,0.4-0.3
			c0.9-0.2,1.4-0.9,1.4-2.2v-0.5V9.9c0-0.4,0-0.6-0.1-0.7c-0.1-0.1-0.3-0.1-0.8-0.1h-7.6c-0.5,0-0.8,0.1-0.9,0.2
			c-0.1,0.1-0.2,0.4-0.2,0.8v4.8c0,0.9,0.1,1.5,0.4,1.9s0.8,0.6,1.6,0.7c0.3,0,0.5,0.1,0.5,0.3s-0.1,0.3-0.4,0.3
			c-0.1,0-0.3,0-0.6-0.1c-0.2,0-0.8-0.1-1.6-0.1h-1.1h-0.9c-0.2,0-0.5,0-0.8,0c-0.4,0-0.7,0.1-0.8,0.1c-0.2,0-0.3-0.1-0.3-0.2
			c0-0.2,0.1-0.3,0.3-0.3l0.6-0.2c0.4-0.1,0.6-0.4,0.8-0.9c0.1-0.5,0.2-1.3,0.2-2.5V2.8c0-0.8-0.1-1.3-0.4-1.6
			c-0.3-0.3-0.8-0.6-1.5-0.7c-0.2,0-0.4-0.1-0.4-0.3c0-0.2,0.1-0.3,0.3-0.3c0.2,0,0.4,0,0.8,0.1c0.7,0.1,1.5,0.1,2.4,0.1
			c0.6,0,1.2,0,1.7-0.1c0.2,0,0.4-0.1,0.5-0.1c0.2,0,0.4,0.1,0.4,0.3c0,0.1-0.1,0.2-0.3,0.3c-0.6,0.1-1,0.4-1.2,0.6
			c-0.2,0.3-0.3,0.7-0.3,1.4v4.6c0,0.5,0,0.8,0.1,0.9C99.8,8.2,100.2,8.3,100.7,8.3z"/>
		<path class="st1" d="M121.1,2.3v5.2c0,0.4,0,0.6,0.1,0.7c0.1,0.1,0.3,0.1,0.7,0.1h2c0.9,0,1.6-0.1,2.2-0.2
			c0.5-0.1,0.8-0.2,0.9-0.4c0.1-0.2,0.3-0.5,0.4-1.1c0-0.2,0.2-0.3,0.3-0.3c0.2,0,0.3,0.1,0.3,0.3c0,0.1,0,0.2,0,0.3
			c-0.1,0.8-0.1,1.6-0.1,2.3c0,0.5,0,1,0.1,1.6c0,0.2,0,0.3,0,0.4c0,0.2-0.1,0.3-0.3,0.3s-0.3-0.1-0.3-0.3l-0.1-0.4
			c-0.1-0.6-0.3-1-0.6-1.2s-0.8-0.3-1.6-0.3h-2.9c-0.4,0-0.7,0-0.8,0.1s-0.2,0.3-0.2,0.5v0.4v4.8c0,0.7,0.1,1.2,0.4,1.4
			c0.3,0.2,0.9,0.3,2,0.3c3.4,0,5.6-0.8,6.5-2.3c0.1-0.1,0.2-0.2,0.3-0.2c0.2,0,0.2,0.1,0.2,0.3c0,0.6-0.3,1.2-0.9,2
			c-0.8,0.9-1.7,1.4-2.9,1.4c-0.2,0-0.6,0-1-0.1c-1.7-0.2-3-0.2-4.1-0.2c-1.5,0-2.6,0.1-3.2,0.2c-0.3,0.1-0.6,0.1-0.7,0.1
			c-0.3,0-0.4-0.1-0.4-0.3c0-0.1,0.1-0.2,0.3-0.3l0.5-0.1c0.6-0.2,0.9-0.8,0.9-1.8v-0.8v-11c0-1.2-0.1-2.1-0.4-2.5
			c-0.3-0.4-0.8-0.6-1.6-0.6c-0.3,0-0.4-0.1-0.4-0.2c0-0.2,0.2-0.4,0.6-0.4c0.2,0,0.5,0,0.9,0.1c1.2,0.1,2.7,0.2,4.5,0.2
			c1.1,0,2,0,2.8-0.1l1.8-0.1c0.5,0,0.8,0,0.9-0.1c0.2,0,0.4-0.1,0.5-0.1c0.3,0,0.4,0.1,0.4,0.4c0,0.1,0,0.2,0,0.3
			c0,0.1-0.1,0.5-0.1,1l-0.1,0.8c0,0.5-0.1,0.8-0.1,0.9s-0.1,0.2-0.3,0.2s-0.3-0.1-0.3-0.4V2.8c0-0.3-0.1-0.5-0.2-0.8
			c-0.2-0.4-0.5-0.6-1-0.8c-0.5-0.1-1.4-0.2-2.8-0.2h-2c-0.5,0-0.9,0.1-1,0.2C121.2,1.5,121.1,1.8,121.1,2.3z"/>
		<path class="st1" d="M157.2,10.5V3.8c0-1.1-0.2-1.9-0.5-2.4s-0.8-0.8-1.6-0.8c-0.2,0-0.4-0.1-0.4-0.3c0-0.2,0.1-0.3,0.3-0.3
			s0.5,0,0.8,0.1s0.7,0.1,1.2,0.1c1,0,1.6,0,1.8,0c0.3,0,0.5,0,0.6,0c0.2,0,0.2,0.1,0.2,0.2s-0.1,0.2-0.3,0.3
			c-0.5,0.2-0.9,0.5-1,0.9c-0.2,0.4-0.2,1.1-0.2,2.2v6.4c0,2.4-0.5,4.2-1.4,5.4c-0.6,0.8-1.5,1.4-2.6,1.9s-2.3,0.7-3.6,0.7
			c-1.5,0-2.8-0.3-4-0.9c-1.2-0.6-2-1.3-2.6-2.3c-0.6-1.1-0.9-2.6-0.9-4.4V4V3.3c0-0.9-0.1-1.6-0.4-1.9c-0.3-0.3-0.8-0.6-1.5-0.7
			c-0.2,0-0.4-0.1-0.4-0.3c0-0.2,0.2-0.3,0.5-0.3c0.2,0,0.5,0,0.9,0s0.7,0,0.9,0h1h1c0.1,0,0.3,0,0.7-0.1c0.3,0,0.5,0,0.7,0
			s0.3,0.1,0.3,0.2c0,0.2-0.1,0.3-0.4,0.3c-0.5,0.1-0.8,0.3-1,0.7c-0.2,0.3-0.3,0.9-0.3,1.7v0.9v6.7c0,2.2,0.3,3.8,1,4.8
			c1,1.3,2.6,2,4.9,2c2.1,0,3.6-0.6,4.6-1.7C156.7,14.4,157.2,12.7,157.2,10.5z"/>
		<path class="st1" d="M178.8,5.2v10.9c0,1,0,1.6-0.1,1.8c0,0.2-0.2,0.3-0.4,0.3c-0.1,0-0.2,0-0.3-0.1l-0.3-0.3L166.8,5.3l-0.1-0.1
			c-0.1-0.1-0.1-0.1-0.2-0.1c-0.2,0-0.2,0.2-0.2,0.6v8.8V15v0.9c0.1,0.6,0.2,1,0.4,1.2s0.7,0.4,1.4,0.5c0.3,0,0.4,0.1,0.4,0.3
			s-0.1,0.3-0.3,0.3c-0.1,0-0.3,0-0.4,0c-0.1,0-0.5,0-1.1-0.1l-1.3-0.1h-0.6c-0.3,0-0.7,0-1,0.1c-0.2,0-0.4,0-0.5,0
			c-0.2,0-0.3-0.1-0.4-0.2c0-0.1,0.1-0.2,0.4-0.3c0.7-0.2,1.2-0.6,1.5-1s0.4-1.1,0.4-2V5.8c0-1.5-0.2-2.7-0.7-3.5
			c-0.5-0.9-1.2-1.4-2.1-1.5c-0.2,0-0.4-0.1-0.4-0.3c0-0.2,0.1-0.2,0.3-0.2c0,0,0.1,0,0.2,0h0.5h0.9h0.2c0.2,0,0.4,0,0.5,0
			c0.2,0,0.4,0.1,0.6,0.4l11.9,13.5c0.2,0.2,0.3,0.3,0.4,0.3c0.1,0,0.1-0.1,0.1-0.2V7.9V6.1l-0.2-3c-0.1-0.7-0.3-1.3-0.6-1.6
			c-0.3-0.3-1-0.5-1.8-0.7c-0.2,0-0.4-0.1-0.4-0.3c0-0.2,0.1-0.2,0.4-0.2c0.1,0,0.3,0,0.5,0c0.6,0.1,1.4,0.1,2.4,0.1
			c0.5,0,1,0,1.3-0.1s0.5-0.1,0.6-0.1c0.2,0,0.3,0.1,0.4,0.3c0,0.1-0.1,0.2-0.3,0.2c-0.5,0.1-0.9,0.3-1,0.6
			c-0.2,0.3-0.3,0.9-0.3,1.7v1.4L178.8,5.2z"/>
		<path class="st1" d="M188.2,4v9.7c0,1.2,0.1,2,0.2,2.4c0.2,0.4,0.4,0.8,0.6,0.9c0.3,0.2,0.7,0.3,1.2,0.4c0.4,0.1,0.6,0.2,0.6,0.3
			c0,0.2-0.1,0.3-0.4,0.3c-0.1,0-0.3,0-0.5,0c-0.3,0-0.7-0.1-1.4-0.1h-1.9l-1.5,0.1c-0.2,0-0.5,0-0.6,0c-0.2,0-0.3-0.1-0.3-0.3
			s0.1-0.2,0.4-0.3c0.7-0.1,1.1-0.3,1.3-0.7c0.2-0.3,0.3-1.1,0.3-2.2V3.6c0-1.1-0.1-1.8-0.4-2.2c-0.2-0.4-0.8-0.6-1.6-0.8
			c-0.3-0.1-0.4-0.2-0.4-0.3c0-0.2,0.1-0.3,0.4-0.3c0.1,0,0.1,0,0.2,0c0.6,0.1,1.5,0.1,2.5,0.1c0.6,0,1.2,0,1.6,0l0.9-0.1
			c0.2,0,0.3,0,0.3,0c0.2,0,0.4,0.1,0.4,0.2c0,0.2-0.1,0.3-0.3,0.3l-0.7,0.3C188.5,1.2,188.2,2.2,188.2,4z"/>
		<path class="st1" d="M197.4,3.3l5,11.4c0.1,0.3,0.2,0.4,0.3,0.4s0.2-0.2,0.5-0.7l0.2-0.5l2.8-6.8c1.2-2.9,1.8-4.8,1.8-5.6
			c0-0.3-0.1-0.5-0.2-0.6c-0.1-0.1-0.4-0.2-0.8-0.3c-0.5-0.1-0.7-0.2-0.7-0.4c0-0.2,0.2-0.2,0.4-0.2c0.1,0,0.2,0,0.4,0
			c0.6,0,1,0.1,1.2,0.1h0.5h0.6h0.3h1.1c0.2,0,0.3,0.1,0.3,0.2s-0.1,0.2-0.3,0.3c-0.6,0.2-1.1,0.7-1.4,1.5L209,2.9L202.6,18
			c-0.2,0.4-0.4,0.6-0.5,0.6c-0.2,0-0.4-0.2-0.6-0.7l-6.6-15.2c-0.3-0.7-0.6-1.2-0.8-1.5c-0.3-0.3-0.6-0.5-1-0.5
			c-0.4-0.1-0.7-0.1-0.8-0.2c-0.1,0-0.1-0.1-0.1-0.2c0-0.2,0.1-0.3,0.4-0.3c0.1,0,0.2,0,0.4,0c0.1,0,0.6,0,1.3,0h1.2h0.9
			c0.2,0,0.5,0,0.8-0.1c0.2,0,0.3,0,0.4,0c0.2,0,0.3,0.1,0.3,0.2s-0.1,0.2-0.3,0.3c-0.4,0.1-0.6,0.2-0.7,0.3
			c-0.1,0.1-0.1,0.2-0.1,0.5C196.8,1.8,197,2.4,197.4,3.3z"/>
		<path class="st1" d="M217.1,2.3v5.2c0,0.4,0,0.6,0.1,0.7c0.1,0.1,0.3,0.1,0.7,0.1h2c0.9,0,1.6-0.1,2.2-0.2
			c0.5-0.1,0.8-0.2,0.9-0.4c0.1-0.2,0.3-0.5,0.4-1.1c0-0.2,0.2-0.3,0.3-0.3c0.2,0,0.3,0.1,0.3,0.3c0,0.1,0,0.2,0,0.3
			c-0.1,0.8-0.1,1.6-0.1,2.3c0,0.5,0,1,0.1,1.6c0,0.2,0,0.3,0,0.4c0,0.2-0.1,0.3-0.3,0.3s-0.3-0.1-0.3-0.3l-0.1-0.4
			c-0.1-0.6-0.3-1-0.6-1.2s-0.8-0.3-1.6-0.3h-2.9c-0.4,0-0.7,0-0.8,0.1s-0.2,0.3-0.2,0.5v0.4v4.8c0,0.7,0.1,1.2,0.4,1.4
			c0.3,0.2,0.9,0.3,2,0.3c3.4,0,5.6-0.8,6.5-2.3c0.1-0.1,0.2-0.2,0.3-0.2c0.2,0,0.2,0.1,0.2,0.3c0,0.6-0.3,1.2-0.9,2
			c-0.8,0.9-1.7,1.4-2.9,1.4c-0.3,0-0.6,0-1-0.1c-1.7-0.2-3-0.2-4.1-0.2c-1.5,0-2.6,0.1-3.2,0.2c-0.3,0.1-0.6,0.1-0.7,0.1
			c-0.3,0-0.4-0.1-0.4-0.3c0-0.1,0.1-0.2,0.3-0.3l0.5-0.1c0.6-0.2,0.9-0.8,0.9-1.8v-0.8v-11c0-1.2-0.1-2.1-0.4-2.5
			c-0.3-0.4-0.8-0.6-1.6-0.6c-0.3,0-0.4-0.1-0.4-0.2c0-0.2,0.2-0.4,0.6-0.4c0.2,0,0.5,0,0.9,0.1c1.2,0.1,2.7,0.2,4.5,0.2
			c1.1,0,2,0,2.8-0.1l1.8-0.1c0.5,0,0.8,0,0.9-0.1c0.2,0,0.4-0.1,0.5-0.1c0.3,0,0.4,0.1,0.4,0.4c0,0.1,0,0.2,0,0.3
			c0,0.1-0.1,0.5-0.1,1l-0.1,0.8c0,0.5-0.1,0.8-0.1,0.9s-0.1,0.2-0.3,0.2s-0.3-0.1-0.3-0.4V2.8c0-0.3-0.1-0.5-0.2-0.8
			c-0.2-0.4-0.5-0.6-1-0.8c-0.5-0.1-1.4-0.2-2.8-0.2h-2c-0.5,0-0.9,0.1-1,0.2C217.2,1.5,217.1,1.8,217.1,2.3z"/>
		<path class="st1" d="M238.6,9.1l3.6,5.3l0.4,0.6c1.1,1.6,2.1,2.5,3.1,2.5h0.4c0.2,0,0.2,0.1,0.2,0.2c0,0.1-0.2,0.2-0.6,0.4
			c-0.4,0.1-0.8,0.2-1.3,0.2c-0.8,0-1.5-0.2-2.1-0.6c-0.6-0.4-1.2-1.1-1.9-2.1l-3.2-4.9l-0.2-0.3c-0.2-0.4-0.5-0.5-1-0.5h-1.7
			L234,10c-0.1,0.1-0.2,0.2-0.2,0.4v4.1V15c0,0.7,0,1.3,0.1,1.5c0.1,0.3,0.2,0.5,0.5,0.7c0.4,0.3,0.9,0.5,1.7,0.6
			c0.3,0,0.5,0.1,0.5,0.3s-0.1,0.3-0.4,0.3c-0.1,0-0.4,0-0.8-0.1c-0.4,0-0.9-0.1-1.6-0.1h-1.2h-0.7c-0.3,0-0.6,0-1.1,0.1
			c-0.3,0-0.6,0.1-0.7,0.1c-0.2,0-0.3-0.1-0.3-0.3c0-0.1,0.1-0.2,0.3-0.3c0.7-0.1,1.1-0.4,1.4-0.9c0.2-0.5,0.3-1.5,0.3-2.9V4.7V3.3
			c0-1.4-0.5-2.1-1.4-2.3l-0.6-0.1c-0.3-0.1-0.4-0.2-0.4-0.3c0-0.2,0.1-0.3,0.4-0.3c0.1,0,0.4,0,0.9,0.1c0.3,0,0.7,0,1.2,0
			c0.4,0,1.1,0,2-0.1c0.7,0,1.3-0.1,1.8-0.1c2,0,3.5,0.4,4.5,1.1s1.5,1.9,1.5,3.3C241.8,6.5,240.7,8,238.6,9.1z M234.7,8.8h1.5
			c1.1,0,2-0.3,2.7-0.9c0.6-0.6,1-1.5,1-2.6c0-1.3-0.4-2.3-1.3-3.1c-0.9-0.8-2-1.2-3.4-1.2c-0.5,0-0.9,0.1-1.1,0.3
			c-0.2,0.2-0.3,0.5-0.3,0.9v0.4v5.3c0,0.4,0.1,0.7,0.2,0.8C234.1,8.7,234.3,8.8,234.7,8.8z"/>
		<path class="st1" d="M253.8-0.1c0.9,0,1.7,0.1,2.3,0.4l0.9,0.4c0.1,0,0.2,0.1,0.2,0.1c0.1,0,0.2,0,0.3-0.1l0.2-0.2l0.1-0.1
			c0.2,0,0.3,0.2,0.3,0.6c0,0.1,0.1,0.6,0.2,1.3l0.2,1.3c0,0.3,0.1,0.5,0.1,0.5c0,0.3-0.1,0.4-0.3,0.4c-0.1,0-0.3-0.2-0.4-0.6
			C257.6,3,257,2.2,256,1.6c-1-0.6-2-0.9-3.2-0.9c-0.9,0-1.7,0.3-2.3,0.8c-0.6,0.5-0.9,1.2-0.9,2.1c0,0.7,0.2,1.4,0.6,1.9
			c0.4,0.4,0.7,0.8,1.2,1c0.4,0.2,1.4,0.6,3.1,1.1c3.2,1,4.8,2.8,4.8,5.1c0,1.6-0.6,2.9-1.8,4c-1.2,1-2.7,1.5-4.5,1.5
			c-0.7,0-1.4-0.1-2.2-0.3c-0.8-0.2-1.4-0.4-1.8-0.7c-0.2-0.1-0.3-0.2-0.3-0.3c-0.1-0.1-0.1-0.4-0.2-0.9c0-0.1-0.1-0.5-0.3-1.2
			c-0.2-0.8-0.3-1.3-0.3-1.7c0-0.3,0.1-0.4,0.3-0.4c0.2,0,0.3,0.2,0.4,0.6c0.3,1.1,1,2,2,2.7c1,0.7,2.1,1.1,3.3,1.1
			c1.2,0,2.2-0.4,3-1.1c0.8-0.7,1.2-1.6,1.2-2.6s-0.4-1.8-1.1-2.4c-0.4-0.3-1.5-0.8-3.4-1.4c-1.9-0.6-3.3-1.4-4.1-2.2
			c-0.8-0.8-1.2-1.8-1.2-3.1c0-1.4,0.5-2.5,1.6-3.4C250.8,0.3,252.2-0.1,253.8-0.1z"/>
		<path class="st1" d="M266.9,4v9.7c0,1.2,0.1,2,0.2,2.4c0.2,0.4,0.4,0.8,0.6,0.9s0.7,0.3,1.2,0.4c0.4,0.1,0.6,0.2,0.6,0.3
			c0,0.2-0.1,0.3-0.4,0.3c-0.1,0-0.3,0-0.5,0c-0.3,0-0.7-0.1-1.4-0.1h-1.9l-1.5,0.1c-0.3,0-0.5,0-0.6,0c-0.2,0-0.3-0.1-0.3-0.3
			s0.1-0.2,0.4-0.3c0.7-0.1,1.1-0.3,1.3-0.7c0.2-0.3,0.3-1.1,0.3-2.2V3.6c0-1.1-0.1-1.8-0.4-2.2c-0.2-0.4-0.8-0.6-1.6-0.8
			c-0.3-0.1-0.4-0.2-0.4-0.3c0-0.2,0.1-0.3,0.4-0.3c0.1,0,0.1,0,0.2,0c0.6,0.1,1.5,0.1,2.5,0.1c0.6,0,1.2,0,1.6,0l0.9-0.1
			c0.2,0,0.3,0,0.3,0c0.2,0,0.4,0.1,0.4,0.2c0,0.2-0.1,0.3-0.3,0.3l-0.7,0.3C267.2,1.2,266.9,2.2,266.9,4z"/>
		<path class="st1" d="M285,1.6h-3.6c-0.4,0-0.6,0.1-0.7,0.2s-0.1,0.4-0.1,0.8v12.7v0.5c0,1,0.6,1.6,1.7,1.8
			c0.3,0.1,0.5,0.1,0.5,0.3s-0.1,0.3-0.4,0.3c-0.1,0-0.3,0-0.6-0.1c-0.2,0-0.6,0-1.2,0h-0.9h-1c-0.4,0-0.7,0-0.9,0
			c-0.5,0.1-0.8,0.1-0.9,0.1c-0.3,0-0.4-0.1-0.4-0.3c0-0.1,0.1-0.2,0.4-0.3c0.7-0.1,1.1-0.3,1.3-0.6c0.2-0.3,0.3-0.8,0.3-1.5V2.6
			V2.3c0-0.3,0-0.5-0.1-0.6s-0.3-0.1-0.6-0.1h-3.4c-0.7,0-1.2,0.1-1.5,0.4s-0.6,0.8-0.7,1.6c-0.1,0.3-0.2,0.5-0.4,0.5
			c-0.2,0-0.2-0.1-0.2-0.3c0-0.2,0.1-0.5,0.2-1c0.1-0.6,0.2-1.1,0.2-1.5s0-0.7,0.1-0.8c0.1-0.1,0.3-0.2,0.6-0.2h14
			c0.5,0,0.8,0.1,0.9,0.2s0.1,0.4,0.1,0.9s0,0.9,0.1,1.1c0,0.3,0.1,0.5,0.1,0.6c0,0.3-0.1,0.4-0.3,0.4c-0.2,0-0.3-0.1-0.3-0.4
			c-0.1-0.6-0.3-1-0.5-1.2C286.2,1.7,285.8,1.6,285,1.6z"/>
		<path class="st1" d="M299,15.3c0,1,0.1,1.6,0.2,1.8c0.2,0.2,0.6,0.4,1.4,0.5c0.3,0,0.4,0.1,0.4,0.3s-0.2,0.3-0.5,0.3
			c-0.1,0-0.3,0-0.7-0.1c-0.2,0-0.5-0.1-0.9-0.1l-1-0.1h-1c-0.6,0-1.1,0-1.3,0c-0.3,0-0.4,0.1-0.5,0.1c-0.2,0-0.3-0.1-0.3-0.2
			c0-0.2,0.1-0.3,0.4-0.3c0.7-0.1,1.2-0.3,1.4-0.6c0.2-0.3,0.3-0.9,0.3-1.8v-0.6v-3.9c0-0.6,0-1-0.1-1.2c-0.1-0.3-0.3-0.6-0.6-1.1
			l-3.6-5.8l-0.4-0.7c-0.3-0.4-0.6-0.7-1.1-1s-0.9-0.4-1.4-0.4c-0.3,0-0.4-0.1-0.4-0.2c0-0.2,0.1-0.3,0.4-0.3c0.2,0,0.4,0,0.7,0
			C291,0,291.5,0,292.2,0c1.3,0,2.1,0,2.4-0.1c0.4,0,0.6-0.1,0.7-0.1c0.2,0,0.4,0.1,0.4,0.3c0,0.1-0.1,0.2-0.3,0.3
			c-0.6,0.2-0.9,0.5-0.9,0.9c0,0.2,0.2,0.6,0.6,1.2l0.4,0.6l2.7,4.3l0.2,0.3c0.1,0.1,0.2,0.2,0.2,0.2c0.1,0,0.2-0.1,0.3-0.2l0.1-0.2
			l1.9-2.8l0.6-1c0.6-1,0.9-1.6,0.9-1.9c0-0.6-0.5-1-1.6-1.3c-0.2-0.1-0.3-0.2-0.3-0.3c0-0.1,0.1-0.2,0.3-0.2c0.1,0,0.4,0,0.7,0.1
			c0.3,0,0.9,0.1,1.8,0.1s1.4,0,1.7,0c0.3,0,0.6-0.1,0.7-0.1c0.2,0,0.4,0.1,0.4,0.2s-0.1,0.2-0.3,0.3c-0.8,0.3-1.4,0.7-1.9,1.5
			l-0.8,1.3l-3.2,4.7l-0.3,0.4c-0.3,0.5-0.5,0.9-0.5,1.3v5.5H299z"/>
		<path class="st1" d="M325-0.1c2.7,0,4.9,0.8,6.7,2.5c1.7,1.7,2.6,3.8,2.6,6.4c0,2.8-0.9,5-2.6,6.8s-4,2.7-6.7,2.7
			c-2.8,0-5.1-0.8-6.8-2.5c-1.7-1.7-2.6-3.9-2.6-6.7c0-1.2,0.2-2.4,0.7-3.5c0.5-1.2,1.1-2.1,1.8-2.9c0.8-0.8,1.8-1.5,3.1-2
			C322.4,0.1,323.7-0.1,325-0.1z M324.1,0.7c-2,0-3.6,0.7-4.8,2c-1.2,1.4-1.8,3.2-1.8,5.5c0,2.6,0.8,4.8,2.3,6.6s3.4,2.7,5.6,2.7
			c2,0,3.7-0.7,5-2.2s2-3.3,2-5.6c0-2.6-0.8-4.7-2.3-6.5C328.4,1.6,326.5,0.7,324.1,0.7z"/>
		<path class="st1" d="M341.9,2.2v5.1v0.2v0.3c0,0.2,0.3,0.3,0.7,0.3h1.1h0.4h1.5c0.8,0,1.4-0.1,1.7-0.4c0.4-0.2,0.6-0.6,0.7-1.2
			c0-0.2,0.1-0.3,0.3-0.3c0.2,0,0.2,0.1,0.2,0.4l-0.1,1.3c0,0.2,0,0.4,0,0.8c0,1,0,1.7,0.1,1.9c0,0.2,0,0.3,0,0.4
			c0,0.2-0.1,0.3-0.2,0.3c-0.2,0-0.3-0.2-0.4-0.6c-0.1-0.5-0.2-0.8-0.3-0.9c-0.1-0.2-0.3-0.3-0.6-0.4c-0.6-0.1-1.4-0.2-2.5-0.2
			c-1,0-1.7,0-2,0.1c-0.3,0-0.5,0.1-0.5,0.3s-0.1,0.4-0.1,0.8v4.8c0,0.7,0.2,1.2,0.5,1.6c0.4,0.4,0.9,0.6,1.5,0.6
			c0.3,0,0.4,0.1,0.5,0.3c0,0.2-0.1,0.3-0.4,0.3c-0.2,0-0.5,0-0.8-0.1c-0.3,0-0.7-0.1-1.3-0.1H341h-1c-0.2,0-0.5,0-0.9,0.1
			c-0.3,0-0.5,0-0.7,0c-0.3,0-0.4-0.1-0.4-0.2c0-0.1,0.1-0.2,0.4-0.3c0.6-0.1,0.9-0.4,1.1-0.7s0.3-0.9,0.3-1.8V3.3
			c0-0.8-0.1-1.5-0.4-1.9c-0.2-0.3-0.4-0.5-0.6-0.6s-0.6-0.2-1.1-0.2c-0.2,0-0.3-0.1-0.3-0.2c0-0.2,0.2-0.3,0.5-0.3
			c0.1,0,0.4,0,0.8,0.1c0.8,0.1,2.1,0.1,3.9,0.1c1.6,0,2.7,0,3.2,0l1.8-0.1c0.8,0,1.3-0.1,1.5-0.1s0.3-0.1,0.4-0.1
			c0.2,0,0.3,0.1,0.3,0.3c0,0.1,0,0.2-0.1,0.4c-0.1,0.6-0.2,1.3-0.2,2.3c0,0.4-0.1,0.6-0.3,0.6c-0.1,0-0.2-0.1-0.2-0.3
			c0-0.3-0.1-0.5-0.1-0.8c-0.1-0.4-0.3-0.7-0.4-0.8c-0.2-0.1-0.5-0.2-1.1-0.3l-1.5-0.2c-0.5,0-1.1-0.1-1.8-0.1c-1,0-1.6,0.1-1.8,0.2
			C342,1.4,341.9,1.7,341.9,2.2z"/>
		<path class="st1" d="M372.8,1.6h-3.6c-0.4,0-0.6,0.1-0.7,0.2s-0.1,0.4-0.1,0.8v12.7v0.5c0,1,0.6,1.6,1.7,1.8
			c0.3,0.1,0.5,0.1,0.5,0.3s-0.1,0.3-0.4,0.3c-0.1,0-0.3,0-0.6-0.1c-0.2,0-0.6,0-1.2,0h-0.9h-1c-0.4,0-0.7,0-0.9,0
			c-0.5,0.1-0.8,0.1-0.9,0.1c-0.3,0-0.4-0.1-0.4-0.3c0-0.1,0.1-0.2,0.4-0.3c0.7-0.1,1.1-0.3,1.3-0.6c0.2-0.3,0.3-0.8,0.3-1.5V2.6
			V2.3c0-0.3,0-0.5-0.1-0.6s-0.3-0.1-0.6-0.1h-3.4c-0.7,0-1.2,0.1-1.5,0.4s-0.6,0.8-0.7,1.6c-0.1,0.3-0.2,0.5-0.4,0.5
			c-0.2,0-0.2-0.1-0.2-0.3c0-0.2,0.1-0.5,0.2-1c0.1-0.6,0.2-1.1,0.2-1.5s0-0.7,0.1-0.8c0.1-0.1,0.3-0.2,0.6-0.2h14
			c0.5,0,0.8,0.1,0.9,0.2s0.1,0.4,0.1,0.9s0,0.9,0.1,1.1c0,0.3,0.1,0.5,0.1,0.6c0,0.3-0.1,0.4-0.3,0.4c-0.2,0-0.3-0.1-0.3-0.4
			c-0.1-0.6-0.3-1-0.5-1.2C374,1.7,373.5,1.6,372.8,1.6z"/>
		<path class="st1" d="M381.9,2.3v5.2c0,0.4,0,0.6,0.1,0.7c0.1,0.1,0.3,0.1,0.7,0.1h2c0.9,0,1.6-0.1,2.2-0.2
			c0.5-0.1,0.8-0.2,0.9-0.4s0.3-0.5,0.4-1.1c0-0.2,0.2-0.3,0.3-0.3c0.2,0,0.3,0.1,0.3,0.3c0,0.1,0,0.2,0,0.3
			c-0.1,0.8-0.1,1.6-0.1,2.3c0,0.5,0,1,0.1,1.6c0,0.2,0,0.3,0,0.4c0,0.2-0.1,0.3-0.3,0.3c-0.2,0-0.3-0.1-0.3-0.3l-0.1-0.4
			c-0.1-0.6-0.3-1-0.6-1.2c-0.3-0.2-0.8-0.3-1.6-0.3H383c-0.4,0-0.7,0-0.8,0.1c-0.1,0.1-0.2,0.3-0.2,0.5v0.4v4.8
			c0,0.7,0.1,1.2,0.4,1.4s0.9,0.3,2,0.3c3.4,0,5.6-0.8,6.5-2.3c0.1-0.1,0.2-0.2,0.3-0.2c0.2,0,0.2,0.1,0.2,0.3c0,0.6-0.3,1.2-0.9,2
			c-0.8,0.9-1.7,1.4-2.9,1.4c-0.3,0-0.6,0-1-0.1c-1.7-0.2-3-0.2-4.1-0.2c-1.5,0-2.6,0.1-3.2,0.2c-0.3,0.1-0.6,0.1-0.7,0.1
			c-0.3,0-0.4-0.1-0.4-0.3c0-0.1,0.1-0.2,0.3-0.3l0.5-0.1c0.6-0.2,0.9-0.8,0.9-1.8v-0.8v-11c0-1.2-0.1-2.1-0.4-2.5s-0.8-0.6-1.6-0.6
			c-0.3,0-0.4-0.1-0.4-0.2c0-0.2,0.2-0.4,0.6-0.4c0.2,0,0.5,0,0.9,0.1c1.2,0.1,2.7,0.2,4.5,0.2c1.1,0,2,0,2.8-0.1l1.8-0.1
			c0.5,0,0.8,0,0.9-0.1c0.2,0,0.4-0.1,0.5-0.1c0.3,0,0.4,0.1,0.4,0.4c0,0.1,0,0.2,0,0.3c0,0.1-0.1,0.5-0.1,1l-0.1,0.8
			c0,0.5-0.1,0.8-0.1,0.9s-0.1,0.2-0.3,0.2c-0.2,0-0.3-0.1-0.3-0.4V2.8c0-0.3-0.1-0.5-0.2-0.8c-0.2-0.4-0.5-0.6-1-0.8
			C387.3,1.1,386.4,1,385,1h-2c-0.5,0-0.9,0.1-1,0.2C382,1.5,381.9,1.8,381.9,2.3z"/>
		<path class="st1" d="M410.1,5.2v10.9c0,1,0,1.6-0.1,1.8c0,0.2-0.2,0.3-0.4,0.3c-0.1,0-0.2,0-0.3-0.1l-0.3-0.3L398.1,5.3L398,5.2
			c-0.1-0.1-0.1-0.1-0.2-0.1c-0.2,0-0.2,0.2-0.2,0.6v8.8V15v0.9c0.1,0.6,0.2,1,0.4,1.2s0.7,0.4,1.4,0.5c0.3,0,0.4,0.1,0.4,0.3
			s-0.1,0.3-0.3,0.3c-0.1,0-0.3,0-0.4,0s-0.5,0-1.1-0.1l-1.3-0.1h-0.6c-0.3,0-0.7,0-1,0.1c-0.2,0-0.4,0-0.5,0
			c-0.2,0-0.3-0.1-0.4-0.2c0-0.1,0.1-0.2,0.4-0.3c0.7-0.2,1.2-0.6,1.5-1s0.4-1.1,0.4-2V5.8c0-1.5-0.2-2.7-0.7-3.5
			c-0.5-0.9-1.2-1.4-2.1-1.5c-0.2,0-0.4-0.1-0.4-0.3c0-0.2,0.1-0.2,0.3-0.2c0,0,0.1,0,0.2,0h0.5h0.9h0.2c0.2,0,0.4,0,0.5,0
			c0.2,0,0.4,0.1,0.6,0.4l11.9,13.5c0.2,0.2,0.3,0.3,0.4,0.3s0.1-0.1,0.1-0.2V7.9V6.1l-0.2-3c-0.1-0.7-0.3-1.3-0.6-1.6
			c-0.3-0.3-1-0.5-1.8-0.7c-0.3,0-0.4-0.1-0.4-0.3c0-0.2,0.1-0.2,0.4-0.2c0.1,0,0.3,0,0.5,0c0.6,0.1,1.4,0.1,2.4,0.1
			c0.5,0,1,0,1.3-0.1s0.5-0.1,0.6-0.1c0.2,0,0.3,0.1,0.4,0.3c0,0.1-0.1,0.2-0.3,0.2c-0.5,0.1-0.9,0.3-1,0.6
			c-0.2,0.3-0.3,0.9-0.3,1.7v1.4L410.1,5.2z"/>
		<path class="st1" d="M430.9,5.2v10.9c0,1,0,1.6-0.1,1.8c0,0.2-0.2,0.3-0.4,0.3c-0.1,0-0.2,0-0.3-0.1l-0.3-0.3L418.9,5.3l-0.1-0.1
			c-0.1-0.1-0.1-0.1-0.2-0.1c-0.2,0-0.2,0.2-0.2,0.6v8.8V15v0.9c0.1,0.6,0.2,1,0.4,1.2s0.7,0.4,1.4,0.5c0.3,0,0.4,0.1,0.4,0.3
			s-0.1,0.3-0.3,0.3c-0.1,0-0.3,0-0.4,0s-0.5,0-1.1-0.1l-1.3-0.1h-0.6c-0.3,0-0.7,0-1,0.1c-0.2,0-0.4,0-0.5,0
			c-0.2,0-0.3-0.1-0.4-0.2c0-0.1,0.1-0.2,0.4-0.3c0.7-0.2,1.2-0.6,1.5-1s0.4-1.1,0.4-2V5.8c0-1.5-0.2-2.7-0.7-3.5
			c-0.5-0.9-1.2-1.4-2.1-1.5c-0.2,0-0.4-0.1-0.4-0.3c0-0.2,0.1-0.2,0.3-0.2c0,0,0.1,0,0.2,0h0.5h0.9h0.2c0.2,0,0.4,0,0.5,0
			c0.2,0,0.4,0.1,0.6,0.4l11.9,13.5c0.2,0.2,0.3,0.3,0.4,0.3s0.1-0.1,0.1-0.2V7.9V6.1l-0.2-3c-0.1-0.7-0.3-1.3-0.6-1.6
			c-0.3-0.3-1-0.5-1.8-0.7c-0.3,0-0.4-0.1-0.4-0.3c0-0.2,0.1-0.2,0.4-0.2c0.1,0,0.3,0,0.5,0c0.6,0.1,1.4,0.1,2.4,0.1
			c0.5,0,1,0,1.3-0.1s0.5-0.1,0.6-0.1c0.2,0,0.3,0.1,0.4,0.3c0,0.1-0.1,0.2-0.3,0.2c-0.5,0.1-0.9,0.3-1,0.6
			c-0.2,0.3-0.3,0.9-0.3,1.7v1.4L430.9,5.2z"/>
		<path class="st1" d="M440.2,2.3v5.2c0,0.4,0,0.6,0.1,0.7c0.1,0.1,0.3,0.1,0.7,0.1h2c0.9,0,1.6-0.1,2.2-0.2
			c0.5-0.1,0.8-0.2,0.9-0.4s0.3-0.5,0.4-1.1c0-0.2,0.2-0.3,0.3-0.3c0.2,0,0.3,0.1,0.3,0.3c0,0.1,0,0.2,0,0.3
			C447,7.7,447,8.5,447,9.2c0,0.5,0,1,0.1,1.6c0,0.2,0,0.3,0,0.4c0,0.2-0.1,0.3-0.3,0.3c-0.2,0-0.3-0.1-0.3-0.3l-0.1-0.4
			c-0.1-0.6-0.3-1-0.6-1.2c-0.3-0.2-0.8-0.3-1.6-0.3h-2.9c-0.4,0-0.7,0-0.8,0.1c-0.1,0.1-0.2,0.3-0.2,0.5v0.4v4.8
			c0,0.7,0.1,1.2,0.4,1.4s0.9,0.3,2,0.3c3.4,0,5.6-0.8,6.5-2.3c0.1-0.1,0.2-0.2,0.3-0.2c0.2,0,0.2,0.1,0.2,0.3c0,0.6-0.3,1.2-0.9,2
			c-0.8,0.9-1.7,1.4-2.9,1.4c-0.3,0-0.6,0-1-0.1c-1.7-0.2-3-0.2-4.1-0.2c-1.5,0-2.6,0.1-3.2,0.2c-0.3,0.1-0.6,0.1-0.7,0.1
			c-0.3,0-0.4-0.1-0.4-0.3c0-0.1,0.1-0.2,0.3-0.3l0.5-0.1c0.6-0.2,0.9-0.8,0.9-1.8v-0.8v-11c0-1.2-0.1-2.1-0.4-2.5s-0.8-0.6-1.6-0.6
			c-0.3,0-0.4-0.1-0.4-0.2c0-0.2,0.2-0.4,0.6-0.4c0.2,0,0.5,0,0.9,0.1c1.2,0.1,2.7,0.2,4.5,0.2c1.1,0,2,0,2.8-0.1l1.8-0.1
			c0.5,0,0.8,0,0.9-0.1c0.2,0,0.4-0.1,0.5-0.1c0.3,0,0.4,0.1,0.4,0.4c0,0.1,0,0.2,0,0.3c0,0.1-0.1,0.5-0.1,1L448,2.4
			c0,0.5-0.1,0.8-0.1,0.9s-0.1,0.2-0.3,0.2c-0.2,0-0.3-0.1-0.3-0.4V2.8c0-0.3-0.1-0.5-0.2-0.8c-0.2-0.4-0.5-0.6-1-0.8
			c-0.5-0.1-1.4-0.2-2.8-0.2h-2c-0.5,0-0.9,0.1-1,0.2C440.3,1.5,440.2,1.8,440.2,2.3z"/>
		<path class="st1" d="M458.4-0.1c0.9,0,1.7,0.1,2.3,0.4l0.9,0.4c0.1,0,0.2,0.1,0.2,0.1c0.1,0,0.2,0,0.3-0.1l0.2-0.2l0.1-0.1
			c0.2,0,0.3,0.2,0.3,0.6c0,0.1,0.1,0.6,0.2,1.3l0.2,1.3c0,0.3,0.1,0.5,0.1,0.5c0,0.3-0.1,0.4-0.3,0.4c-0.1,0-0.3-0.2-0.4-0.6
			c-0.3-0.9-0.9-1.7-1.9-2.3c-1-0.6-2-0.9-3.2-0.9c-0.9,0-1.7,0.3-2.3,0.8c-0.6,0.5-0.9,1.2-0.9,2.1c0,0.7,0.2,1.4,0.6,1.9
			c0.4,0.4,0.7,0.8,1.2,1c0.4,0.2,1.4,0.6,3.1,1.1c3.2,1,4.8,2.8,4.8,5.1c0,1.6-0.6,2.9-1.8,4c-1.2,1-2.7,1.5-4.5,1.5
			c-0.7,0-1.4-0.1-2.2-0.3c-0.8-0.2-1.4-0.4-1.8-0.7c-0.2-0.1-0.3-0.2-0.3-0.3c-0.1-0.1-0.1-0.4-0.2-0.9c0-0.1-0.1-0.5-0.3-1.2
			c-0.2-0.8-0.3-1.3-0.3-1.7c0-0.3,0.1-0.4,0.3-0.4c0.2,0,0.3,0.2,0.4,0.6c0.3,1.1,1,2,2,2.7c1,0.7,2.1,1.1,3.3,1.1
			c1.2,0,2.2-0.4,3-1.1c0.8-0.7,1.2-1.6,1.2-2.6s-0.4-1.8-1.1-2.4c-0.4-0.3-1.5-0.8-3.4-1.4c-1.9-0.6-3.3-1.4-4.1-2.2
			c-0.8-0.8-1.2-1.8-1.2-3.1c0-1.4,0.5-2.5,1.6-3.4C455.4,0.3,456.7-0.1,458.4-0.1z"/>
		<path class="st1" d="M472.8-0.1c0.9,0,1.7,0.1,2.3,0.4l0.9,0.4c0.1,0,0.2,0.1,0.2,0.1c0.1,0,0.2,0,0.3-0.1l0.2-0.2l0.1-0.1
			c0.2,0,0.3,0.2,0.3,0.6c0,0.1,0.1,0.6,0.2,1.3l0.2,1.3c0,0.3,0.1,0.5,0.1,0.5c0,0.3-0.1,0.4-0.3,0.4c-0.1,0-0.3-0.2-0.4-0.6
			C476.6,3,476,2.2,475,1.6c-1-0.6-2-0.9-3.2-0.9c-0.9,0-1.7,0.3-2.3,0.8c-0.6,0.5-0.9,1.2-0.9,2.1c0,0.7,0.2,1.4,0.6,1.9
			c0.4,0.4,0.7,0.8,1.2,1c0.4,0.2,1.4,0.6,3.1,1.1c3.2,1,4.8,2.8,4.8,5.1c0,1.6-0.6,2.9-1.8,4c-1.2,1-2.7,1.5-4.5,1.5
			c-0.7,0-1.4-0.1-2.2-0.3c-0.8-0.2-1.4-0.4-1.8-0.7c-0.2-0.1-0.3-0.2-0.3-0.3c-0.1-0.1-0.1-0.4-0.2-0.9c0-0.1-0.1-0.5-0.3-1.2
			c-0.2-0.8-0.3-1.3-0.3-1.7c0-0.3,0.1-0.4,0.3-0.4c0.2,0,0.3,0.2,0.4,0.6c0.3,1.1,1,2,2,2.7c1,0.7,2.1,1.1,3.3,1.1
			c1.2,0,2.2-0.4,3-1.1c0.8-0.7,1.2-1.6,1.2-2.6s-0.4-1.8-1.1-2.4c-0.4-0.3-1.5-0.8-3.4-1.4c-1.9-0.6-3.3-1.4-4.1-2.2
			c-0.8-0.8-1.2-1.8-1.2-3.1c0-1.4,0.5-2.5,1.6-3.4C469.9,0.3,471.2-0.1,472.8-0.1z"/>
		<path class="st1" d="M485.9,2.3v5.2c0,0.4,0,0.6,0.1,0.7c0.1,0.1,0.3,0.1,0.7,0.1h2c0.9,0,1.6-0.1,2.2-0.2
			c0.5-0.1,0.8-0.2,0.9-0.4c0.1-0.2,0.3-0.5,0.4-1.1c0-0.2,0.2-0.3,0.3-0.3c0.2,0,0.3,0.1,0.3,0.3c0,0.1,0,0.2,0,0.3
			c-0.1,0.8-0.1,1.6-0.1,2.3c0,0.5,0,1,0.1,1.6c0,0.2,0,0.3,0,0.4c0,0.2-0.1,0.3-0.3,0.3s-0.3-0.1-0.3-0.3l-0.1-0.4
			c-0.1-0.6-0.3-1-0.6-1.2s-0.8-0.3-1.6-0.3H487c-0.4,0-0.7,0-0.8,0.1c-0.1,0.1-0.2,0.3-0.2,0.5v0.4v4.8c0,0.7,0.1,1.2,0.4,1.4
			s0.9,0.3,2,0.3c3.4,0,5.6-0.8,6.5-2.3c0.1-0.1,0.2-0.2,0.3-0.2c0.2,0,0.2,0.1,0.2,0.3c0,0.6-0.3,1.2-0.9,2
			c-0.8,0.9-1.7,1.4-2.9,1.4c-0.3,0-0.6,0-1-0.1c-1.7-0.2-3-0.2-4.1-0.2c-1.5,0-2.6,0.1-3.2,0.2c-0.3,0.1-0.6,0.1-0.7,0.1
			c-0.3,0-0.4-0.1-0.4-0.3c0-0.1,0.1-0.2,0.3-0.3l0.5-0.1c0.6-0.2,0.9-0.8,0.9-1.8v-0.8v-11c0-1.2-0.1-2.1-0.4-2.5s-0.8-0.6-1.6-0.6
			c-0.3,0-0.4-0.1-0.4-0.2c0-0.2,0.2-0.4,0.6-0.4c0.2,0,0.5,0,0.9,0.1c1.2,0.1,2.7,0.2,4.5,0.2c1.1,0,2,0,2.8-0.1l1.8-0.1
			c0.5,0,0.8,0,0.9-0.1c0.2,0,0.4-0.1,0.5-0.1c0.3,0,0.4,0.1,0.4,0.4c0,0.1,0,0.2,0,0.3c0,0.1-0.1,0.5-0.1,1l-0.1,0.8
			c0,0.5-0.1,0.8-0.1,0.9s-0.1,0.2-0.3,0.2S493,3.4,493,3.1V2.8c0-0.3-0.1-0.5-0.2-0.8c-0.2-0.4-0.5-0.6-1-0.8
			C491.3,1.1,490.4,1,489,1h-2c-0.5,0-0.9,0.1-1,0.2C486,1.5,485.9,1.8,485.9,2.3z"/>
		<path class="st1" d="M502.6,2.3v5.2c0,0.4,0,0.6,0.1,0.7c0.1,0.1,0.3,0.1,0.7,0.1h2c0.9,0,1.6-0.1,2.2-0.2
			c0.5-0.1,0.8-0.2,0.9-0.4c0.1-0.2,0.3-0.5,0.4-1.1c0-0.2,0.2-0.3,0.3-0.3c0.2,0,0.3,0.1,0.3,0.3c0,0.1,0,0.2,0,0.3
			c-0.1,0.8-0.1,1.6-0.1,2.3c0,0.5,0,1,0.1,1.6c0,0.2,0,0.3,0,0.4c0,0.2-0.1,0.3-0.3,0.3s-0.3-0.1-0.3-0.3l-0.1-0.4
			c-0.1-0.6-0.3-1-0.6-1.2s-0.8-0.3-1.6-0.3h-3c-0.4,0-0.7,0-0.8,0.1s-0.2,0.3-0.2,0.5v0.4v4.8c0,0.7,0.1,1.2,0.4,1.4
			c0.3,0.2,0.9,0.3,2,0.3c3.4,0,5.6-0.8,6.5-2.3c0.1-0.1,0.2-0.2,0.3-0.2c0.2,0,0.2,0.1,0.2,0.3c0,0.6-0.3,1.2-0.9,2
			c-0.8,0.9-1.7,1.4-2.9,1.4c-0.3,0-0.6,0-1-0.1c-1.7-0.2-3-0.2-4.1-0.2c-1.5,0-2.6,0.1-3.2,0.2c-0.3,0.1-0.6,0.1-0.7,0.1
			c-0.3,0-0.4-0.1-0.4-0.3c0-0.1,0.1-0.2,0.3-0.3l0.5-0.1c0.6-0.2,0.9-0.8,0.9-1.8v-0.8v-11c0-1.2-0.1-2.1-0.4-2.5
			c-0.3-0.4-0.8-0.6-1.6-0.6c-0.3,0-0.4-0.1-0.4-0.2c0-0.2,0.2-0.4,0.6-0.4c0.2,0,0.5,0,0.9,0.1c1.2,0.1,2.7,0.2,4.5,0.2
			c1.1,0,2,0,2.8-0.1l1.8-0.1c0.5,0,0.8,0,0.9-0.1c0.2,0,0.4-0.1,0.5-0.1c0.3,0,0.4,0.1,0.4,0.4c0,0.1,0,0.2,0,0.3
			c0,0.1-0.1,0.5-0.1,1l-0.1,0.8c0,0.5-0.1,0.8-0.1,0.9s-0.1,0.2-0.3,0.2s-0.3-0.1-0.3-0.4V2.8c0-0.3-0.1-0.5-0.2-0.8
			c-0.2-0.4-0.5-0.6-1-0.8C507.9,1.1,507,1,505.6,1h-2c-0.5,0-0.9,0.1-1,0.2C502.7,1.5,502.6,1.8,502.6,2.3z"/>
	</g>
	<path class="st0" d="M348.7,40.3c0-0.1-0.1-0.1-0.2-0.1h-0.3c-0.6,0-1.4-0.6-2.2-1.8l-2.9-4.2c1.5-0.8,2.3-1.9,2.3-3.3
		c0-1.1-0.4-2-1.1-2.5c-0.8-0.6-1.9-0.8-3.3-0.8c-0.4,0-0.8,0-1.3,0c-0.7,0-1.2,0.1-1.5,0.1s-0.6,0-0.8,0c-0.4,0-0.6,0-0.7,0
		c-0.4,0-0.4,0.2-0.4,0.3c0,0.2,0.1,0.3,0.4,0.3l0.4,0.1c0.6,0.1,0.9,0.6,0.9,1.6v1v6.8c0,1.1-0.1,1.8-0.2,2.1s-0.4,0.5-0.9,0.6
		c-0.3,0.1-0.3,0.2-0.3,0.3c0,0.1,0,0.3,0.3,0.3c0.1,0,0.3,0,0.5,0c0.3,0,0.6,0,0.8,0h0.5h0.9c0.5,0,0.9,0,1.2,0c0.3,0,0.5,0,0.6,0
		c0.2,0,0.3,0,0.4-0.1c0,0,0.1-0.1,0.1-0.2c0-0.2-0.2-0.3-0.4-0.3c-0.5-0.1-1-0.2-1.2-0.4c-0.2-0.1-0.3-0.3-0.3-0.5
		c-0.1-0.2-0.1-0.6-0.1-1.1v-3.3c0-0.1,0-0.2,0.1-0.2h0.2h1.3c0.3,0,0.5,0.1,0.7,0.3l2.5,3.8c0.5,0.7,0.9,1.2,1.4,1.6
		c0.5,0.3,1,0.5,1.6,0.5c0.4,0,0.7,0,1-0.1c0.2-0.1,0.5-0.2,0.5-0.3C348.7,40.4,348.7,40.4,348.7,40.3z M339.6,29.1
		c0-0.3,0.1-0.5,0.2-0.6s0.4-0.2,0.7-0.2c1,0,1.8,0.3,2.4,0.9c0.6,0.6,0.9,1.3,0.9,2.2c0,0.8-0.2,1.4-0.7,1.8
		c-0.5,0.4-1.1,0.7-1.9,0.7h-1.1c-0.4,0-0.5-0.1-0.5-0.1s-0.1-0.1-0.1-0.5v-3.9L339.6,29.1z"/>
	<path class="st0" d="M174.8,33c-1.2-0.4-1.9-0.7-2.2-0.8s-0.6-0.4-0.8-0.7c-0.3-0.4-0.4-0.8-0.4-1.3c0-0.6,0.2-1,0.7-1.4
		c0.4-0.4,1-0.6,1.6-0.6c0.8,0,1.6,0.2,2.3,0.6c0.7,0.4,1.1,1,1.3,1.6c0.1,0.4,0.2,0.5,0.4,0.5c0.1,0,0.3,0,0.3-0.4c0,0,0-0.1,0-0.4
		l-0.2-1c-0.1-0.7-0.1-0.9-0.1-0.9c0-0.4-0.1-0.6-0.3-0.6c-0.1,0-0.1,0-0.2,0.1l-0.1,0.1c-0.1,0.1-0.2,0.1-0.3,0l-0.7-0.3
		c-0.5-0.2-1.1-0.3-1.8-0.3c-1.2,0-2.2,0.3-3,1s-1.2,1.5-1.2,2.6c0,0.9,0.3,1.7,0.9,2.3c0.6,0.6,1.6,1.1,3,1.6
		c1.3,0.4,2.2,0.8,2.4,1c0.5,0.5,0.8,1,0.8,1.7s-0.3,1.3-0.9,1.8c-0.6,0.5-1.3,0.7-2.1,0.7s-1.6-0.3-2.3-0.8
		c-0.7-0.5-1.2-1.2-1.4-1.9c-0.1-0.2-0.2-0.5-0.4-0.5c-0.1,0-0.3,0-0.3,0.4c0,0.2,0.1,0.7,0.2,1.2c0.1,0.5,0.2,0.8,0.2,0.9
		c0.1,0.4,0.1,0.6,0.2,0.7c0,0.1,0.1,0.2,0.3,0.3c0.3,0.2,0.7,0.4,1.3,0.5s1.1,0.2,1.6,0.2c1.4,0,2.5-0.4,3.4-1.2
		c0.9-0.8,1.3-1.8,1.3-3C178.4,35.1,177.2,33.8,174.8,33z"/>
	<path class="st0" d="M229.2,27.5c-0.1,0-0.3,0-0.5,0.1c-0.2,0-0.5,0.1-0.9,0.1c-0.7,0-1.3,0-1.7-0.1c-0.2,0-0.3,0-0.4,0
		c-0.3,0-0.4,0.2-0.4,0.3s0,0.3,0.4,0.3c0.6,0.1,1.1,0.3,1.3,0.5s0.4,0.6,0.4,1.1l0.1,2.2v6v0.1c0,0-0.1-0.1-0.2-0.2l-8.7-9.9
		c-0.2-0.2-0.4-0.3-0.5-0.3s-0.2,0-0.4,0h-0.1h-1c-0.1,0-0.1,0-0.2,0c-0.2,0-0.3,0.1-0.3,0.3c0,0.1,0,0.3,0.3,0.3
		c0.6,0.1,1.1,0.4,1.4,1c0.3,0.6,0.5,1.5,0.5,2.5v6.4c0,0.7-0.1,1.1-0.3,1.4c-0.2,0.3-0.5,0.5-1,0.7c-0.2,0.1-0.3,0.2-0.3,0.3
		c0,0.1,0.1,0.3,0.4,0.3c0.1,0,0.2,0,0.4,0s0.4,0,0.7,0h0.4h1c0.6,0,0.8,0,0.8,0.1c0.1,0,0.2,0,0.3,0c0.2,0,0.3-0.1,0.3-0.3
		c0-0.1-0.1-0.3-0.4-0.3c-0.5-0.1-0.8-0.2-0.9-0.3c-0.2-0.1-0.2-0.4-0.3-0.8v-0.7v-6.8c0-0.2,0-0.3,0.1-0.3c0,0,0,0,0.1,0l8.1,9.2
		l0.2,0.3c0.1,0.1,0.2,0.1,0.3,0.1l0,0c0.2,0,0.3-0.1,0.3-0.3c0-0.2,0-0.6,0-1.3v-7.9V31v-1c0-0.6,0.1-1,0.2-1.2
		c0.1-0.2,0.3-0.3,0.7-0.4c0.2-0.1,0.3-0.2,0.3-0.3C229.5,27.7,229.5,27.5,229.2,27.5z M228,40.8L228,40.8L228,40.8L228,40.8z"/>
	<path class="st0" d="M213.8,38L213.8,38c-0.1,0-0.2,0.1-0.3,0.2c-0.7,1.1-2.3,1.6-4.7,1.6c-0.9,0-1.3-0.1-1.4-0.2
		c-0.1-0.1-0.2-0.3-0.2-0.9v-3.5v-0.3c0-0.2,0-0.2,0.1-0.3c0,0,0.2-0.1,0.6-0.1h2.1c0.5,0,0.9,0.1,1.1,0.2c0.2,0.1,0.3,0.4,0.4,0.8
		l0.1,0.3c0,0.2,0.2,0.3,0.3,0.3s0.3,0,0.3-0.3c0-0.1,0-0.2,0-0.3c0-0.4-0.1-0.8-0.1-1.1c0-0.5,0-1.1,0.1-1.7c0-0.1,0-0.2,0-0.2
		c0-0.3-0.2-0.3-0.3-0.4c-0.1,0-0.3,0-0.3,0.3c-0.1,0.5-0.2,0.7-0.3,0.7c-0.1,0.1-0.2,0.2-0.6,0.2c-0.4,0.1-0.9,0.1-1.6,0.1h-1.5
		c-0.4,0-0.4-0.1-0.4-0.1s-0.1-0.1-0.1-0.5V29c0-0.4,0.1-0.5,0.1-0.6c0.1,0,0.2-0.1,0.7-0.1h1.5c1,0,1.6,0,2,0.1
		c0.3,0.1,0.6,0.3,0.7,0.5c0.1,0.2,0.1,0.4,0.1,0.5v0.2c0,0.3,0.2,0.4,0.3,0.4l0,0c0.1,0,0.3-0.1,0.3-0.2c0-0.1,0.1-0.3,0.1-0.7
		v-0.6c0-0.4,0.1-0.7,0.1-0.7c0-0.1,0-0.2,0-0.2c0-0.2-0.2-0.4-0.4-0.4c-0.1,0-0.2,0-0.4,0c-0.1,0-0.2,0-0.7,0l-1.3,0.1
		c-0.6,0-1.3,0-2,0c-1.3,0-2.4-0.1-3.2-0.2c-0.3,0-0.5,0-0.6,0c-0.5,0-0.5,0.2-0.5,0.4c0,0.1,0,0.3,0.4,0.3c0.5,0,0.9,0.1,1.1,0.4
		c0.2,0.3,0.3,0.9,0.3,1.8v8v0.6c0,0.7-0.2,1.1-0.6,1.2l-0.4,0.1c-0.3,0.1-0.3,0.2-0.3,0.3c0,0.1,0.1,0.3,0.4,0.3
		c0.1,0,0.3,0,0.5-0.1c0.4-0.1,1.2-0.1,2.3-0.1c0.8,0,1.8,0.1,3,0.2c0.3,0,0.6,0,0.7,0c0.9,0,1.6-0.4,2.2-1.1
		c0.5-0.6,0.7-1.1,0.7-1.5C214.1,38.1,213.9,38,213.8,38z"/>
	<path class="st0" d="M200.8,40.2c-0.4-0.1-0.7-0.1-0.8-0.3c-0.2-0.1-0.3-0.3-0.4-0.6c-0.1-0.3-0.2-0.9-0.2-1.7v-7.1
		c0-1.3,0.2-2,0.6-2.2l0.5-0.2c0.3-0.1,0.3-0.2,0.3-0.3s0-0.3-0.4-0.3c0,0-0.1,0-0.2,0l-0.6,0.1c-0.3,0-0.7,0-1.2,0
		c-0.8,0-1.4,0-1.8-0.1c-0.2,0-0.4,0-0.5,0.1c0,0-0.1,0.1-0.1,0.2c0,0.1,0.1,0.3,0.4,0.3c0.6,0.1,0.9,0.3,1.1,0.5
		c0.2,0.3,0.3,0.8,0.3,1.5v8.1c0,0.8-0.1,1.3-0.2,1.5c-0.1,0.2-0.4,0.4-0.9,0.4c-0.3,0-0.4,0.2-0.4,0.3c0,0.1,0,0.3,0.4,0.3
		c0.1,0,0.3,0,0.5,0l1.1-0.1h1.4c0.5,0,0.8,0,1,0c0.1,0,0.3,0,0.4,0c0.4,0,0.4-0.2,0.4-0.3C201.4,40.3,201.1,40.3,200.8,40.2z"/>
	<path class="st0" d="M193.5,37.1c-0.1,0-0.2,0.1-0.5,0.6c-0.3,0.7-1,1.3-1.9,1.8c-0.9,0.5-1.8,0.7-2.7,0.7c-1.6,0-2.9-0.6-3.9-1.8
		s-1.5-2.8-1.5-4.8c0-1.7,0.5-3,1.4-4s2.2-1.5,3.7-1.5c2,0,3.6,1,4.7,3c0.2,0.3,0.3,0.4,0.4,0.4l0,0c0.1,0,0.2-0.1,0.2-0.2v-0.1l0,0
		l-0.3-2.5c0-0.1-0.1-0.4-0.3-0.4c-0.1,0-0.1,0-0.3,0.2h-0.1h-0.1l-0.5-0.3c-1.1-0.6-2.4-0.9-3.7-0.9c-2,0-3.6,0.7-4.9,2
		c-1.3,1.3-2,3-2,5s0.6,3.6,1.9,4.8c1.3,1.2,2.9,1.8,5,1.8c1.8,0,3.4-0.5,4.9-1.4c0.3-0.2,0.5-0.4,0.5-0.6l0.3-1.6v-0.1
		C193.7,37.1,193.5,37.1,193.5,37.1z"/>
	<path class="st0" d="M244.5,37.1L244.5,37.1c-0.1,0-0.2,0.1-0.5,0.6c-0.3,0.7-1,1.3-1.9,1.8c-0.9,0.5-1.8,0.7-2.7,0.7
		c-1.6,0-2.9-0.6-3.9-1.8s-1.5-2.8-1.5-4.8c0-1.7,0.5-3,1.4-4s2.2-1.5,3.7-1.5c2,0,3.6,1,4.7,3c0.2,0.3,0.3,0.4,0.4,0.4l0,0
		c0.1,0,0.2-0.1,0.2-0.2v-0.1l0,0l-0.3-2.5c0-0.1-0.1-0.4-0.3-0.4c-0.1,0-0.1,0-0.3,0.2h-0.1h-0.1l-0.5-0.3
		c-1.1-0.6-2.4-0.9-3.7-0.9c-2,0-3.6,0.7-4.9,2s-2,3-2,5s0.6,3.6,1.9,4.8c1.3,1.2,2.9,1.8,5,1.8c1.8,0,3.4-0.5,4.9-1.4
		c0.3-0.2,0.5-0.4,0.5-0.6l0.3-1.6v-0.1C244.8,37.1,244.6,37.1,244.5,37.1z"/>
	<path class="st0" d="M291.3,38L291.3,38c-0.1,0-0.2,0.1-0.3,0.2c-0.7,1.1-2.3,1.6-4.7,1.6c-0.9,0-1.3-0.1-1.4-0.2s-0.2-0.3-0.2-0.9
		v-3.5v-0.3c0-0.2,0-0.2,0.1-0.3c0.1,0,0.2-0.1,0.6-0.1h2.1c0.5,0,0.9,0.1,1.1,0.2c0.2,0.1,0.3,0.4,0.4,0.8l0.1,0.3
		c0,0.2,0.2,0.3,0.3,0.3c0.1,0,0.3,0,0.3-0.3c0-0.1,0-0.2,0-0.3c0-0.4-0.1-0.8-0.1-1.1c0-0.5,0-1.1,0.1-1.7c0-0.1,0-0.2,0-0.2
		c0-0.3-0.2-0.3-0.3-0.4c-0.1,0-0.3,0-0.3,0.3c-0.1,0.5-0.2,0.7-0.3,0.7c-0.1,0.1-0.2,0.2-0.6,0.2c-0.4,0.1-0.9,0.1-1.6,0.1h-1.5
		c-0.4,0-0.4-0.1-0.4-0.1s-0.1-0.1-0.1-0.5V29c0-0.4,0.1-0.5,0.1-0.6c0,0,0.2-0.1,0.7-0.1h1.5c1,0,1.6,0,2,0.1
		c0.3,0.1,0.6,0.3,0.7,0.5s0.1,0.4,0.1,0.5v0.2c0,0.3,0.2,0.4,0.3,0.4l0,0c0.2,0,0.3-0.1,0.3-0.2c0-0.1,0.1-0.3,0.1-0.7v-0.6
		c0-0.4,0.1-0.7,0.1-0.7c0-0.1,0-0.2,0-0.2c0-0.2-0.2-0.4-0.4-0.4c-0.1,0-0.2,0-0.4,0c-0.1,0-0.2,0-0.7,0l-1.3,0.1c-0.6,0-1.3,0-2,0
		c-1.3,0-2.4-0.1-3.2-0.2c-0.3,0-0.5,0-0.6,0c-0.5,0-0.5,0.2-0.5,0.4c0,0.1,0,0.3,0.4,0.3c0.5,0,0.9,0.1,1.1,0.4
		c0.2,0.3,0.3,0.9,0.3,1.8v8v0.6c0,0.7-0.2,1.1-0.6,1.2l-0.4,0.1c-0.3,0.1-0.3,0.2-0.3,0.3c0,0.1,0.1,0.3,0.4,0.3
		c0.1,0,0.3,0,0.5-0.1c0.4-0.1,1.2-0.1,2.3-0.1c0.8,0,1.8,0.1,3,0.2c0.3,0,0.6,0,0.7,0c0.9,0,1.6-0.4,2.2-1.1
		c0.5-0.6,0.7-1.1,0.7-1.5C291.6,38.1,291.4,38,291.3,38z"/>
	<path class="st0" d="M257.1,38L257.1,38c-0.1,0-0.2,0.1-0.3,0.2c-0.7,1.1-2.3,1.6-4.7,1.6c-0.9,0-1.3-0.1-1.4-0.2s-0.2-0.3-0.2-0.9
		v-3.5v-0.3c0-0.2,0-0.3,0.1-0.3c0,0,0.2-0.1,0.6-0.1h2.1c0.5,0,0.9,0.1,1.1,0.2c0.2,0.1,0.3,0.4,0.4,0.8l0.1,0.3
		c0,0.2,0.2,0.3,0.3,0.3c0.1,0,0.3,0,0.3-0.3c0-0.1,0-0.2,0-0.3c0-0.4-0.1-0.8-0.1-1.1c0-0.5,0-1.1,0.1-1.7c0-0.1,0-0.2,0-0.2
		c0-0.3-0.2-0.3-0.3-0.4c-0.1,0-0.3,0-0.3,0.3c-0.1,0.5-0.2,0.7-0.2,0.7c-0.1,0.1-0.2,0.2-0.6,0.2c-0.4,0.1-0.9,0.1-1.6,0.1H251
		c-0.4,0-0.4-0.1-0.4-0.1s-0.1-0.1-0.1-0.5V29c0-0.4,0.1-0.5,0.1-0.6c0.1,0,0.2-0.1,0.7-0.1h1.5c1,0,1.6,0,2,0.1
		c0.3,0.1,0.6,0.3,0.7,0.5s0.1,0.4,0.1,0.5v0.2c0,0.3,0.2,0.4,0.3,0.4l0,0c0.1,0,0.3-0.1,0.3-0.2c0-0.1,0.1-0.2,0.1-0.7v-0.6
		c0-0.5,0.1-0.7,0.1-0.7c0-0.1,0-0.2,0-0.2c0-0.2-0.2-0.4-0.4-0.4c-0.1,0-0.2,0-0.4,0c-0.1,0-0.2,0-0.7,0l-1.3,0.1c-0.6,0-1.3,0-2,0
		c-1.3,0-2.4-0.1-3.2-0.2c-0.3,0-0.5,0-0.6,0c-0.5,0-0.5,0.2-0.5,0.4c0,0.1,0,0.3,0.4,0.3c0.5,0,0.9,0.1,1.1,0.4
		c0.2,0.3,0.3,0.9,0.3,1.8v8v0.6c0,0.7-0.2,1.1-0.6,1.2l-0.4,0.1c-0.3,0.1-0.3,0.2-0.3,0.3c0,0.1,0.1,0.3,0.4,0.3
		c0.1,0,0.3,0,0.5-0.1c0.4-0.1,1.2-0.1,2.3-0.1c0.8,0,1.8,0.1,3,0.2c0.3,0,0.6,0,0.7,0c0.9,0,1.6-0.4,2.2-1.1
		c0.5-0.6,0.7-1.1,0.7-1.5C257.4,38.1,257.2,38,257.1,38z"/>
	<path class="st0" d="M278.7,37.1L278.7,37.1c-0.1,0-0.2,0.1-0.5,0.6c-0.3,0.7-1,1.3-1.9,1.8c-0.9,0.5-1.8,0.7-2.7,0.7
		c-1.6,0-2.9-0.6-3.9-1.8s-1.5-2.8-1.5-4.8c0-1.7,0.5-3,1.4-4s2.2-1.5,3.7-1.5c2,0,3.6,1,4.7,3c0.2,0.3,0.3,0.4,0.4,0.4l0,0
		c0.1,0,0.2-0.1,0.2-0.2v-0.1l0,0l-0.3-2.5c0-0.1-0.1-0.4-0.3-0.4c-0.1,0-0.1,0-0.3,0.2h-0.1h-0.1l-0.5-0.3
		c-1.1-0.6-2.4-0.9-3.7-0.9c-2,0-3.6,0.7-4.9,2s-2,3-2,5s0.6,3.6,1.9,4.8c1.3,1.2,2.9,1.8,5,1.8c1.8,0,3.4-0.5,4.9-1.4
		c0.3-0.2,0.5-0.4,0.5-0.6l0.3-1.6v-0.1C279,37.1,278.8,37.1,278.7,37.1z"/>
	<path class="st0" d="M92,40.3c-0.5-0.1-0.8-0.2-1-0.4c-0.2-0.2-0.3-0.7-0.3-1.3v-9.2c0-0.3,0.1-0.6,0.2-0.8s0.3-0.3,0.4-0.4
		l0.4-0.1C92,28,92,27.9,92,27.8s0-0.3-0.3-0.3c-0.1,0-0.2,0-0.4,0c-0.3,0-0.7,0.1-1.4,0.1c-0.5,0-0.9,0-1.3-0.1c-0.3,0-0.5,0-0.7,0
		c-0.3,0-0.3,0.2-0.3,0.3s0.1,0.3,0.4,0.3c0.4,0.1,0.7,0.3,0.9,0.5c0.2,0.3,0.2,0.7,0.2,1.3v3.2c0,0.1,0,0.2-0.1,0.3
		c0,0-0.1,0.1-0.5,0.1h-5.6c-0.5,0-0.6-0.1-0.6-0.1s-0.1-0.1-0.1-0.6v-3.3c0-0.4,0.1-0.8,0.2-0.9c0.1-0.2,0.4-0.3,0.8-0.4
		c0.2-0.1,0.3-0.2,0.3-0.3s0-0.3-0.4-0.3c-0.1,0-0.2,0-0.4,0c-0.4,0.1-0.8,0.1-1.2,0.1c-0.7,0-1.2,0-1.7-0.1c-0.2,0-0.4,0-0.6-0.1
		l0,0c-0.3,0-0.3,0.2-0.3,0.3s0.1,0.3,0.4,0.3c0.5,0.1,0.9,0.2,1.1,0.5c0.2,0.2,0.3,0.6,0.3,1.1v8.1c0,0.9,0,1.5-0.1,1.8
		s-0.3,0.5-0.5,0.6l-0.5,0.1c-0.3,0.1-0.3,0.2-0.3,0.3c0,0.1,0,0.3,0.3,0.3c0.1,0,0.4,0,0.6,0s0.4,0,0.6,0h0.6h0.8c0.6,0,1,0,1.1,0
		c0.2,0,0.4,0,0.5,0s0.2,0,0.3-0.1c0,0,0.1-0.1,0.1-0.2s-0.1-0.3-0.5-0.3c-0.5-0.1-0.9-0.2-1.1-0.5c-0.2-0.2-0.3-0.7-0.3-1.3V35
		c0-0.4,0.1-0.5,0.1-0.5s0.2-0.1,0.6-0.1h5.6c0.4,0,0.5,0,0.5,0.1c0,0,0.1,0.1,0.1,0.4v3.5v0.4c0,0.9-0.3,1.4-0.9,1.5
		c-0.3,0-0.4,0.1-0.4,0.3c0,0.1,0,0.2,0.1,0.2c0.1,0.1,0.1,0.1,0.2,0.1l0,0c0,0,0.2,0,0.7,0c0.2,0,0.3,0,0.4,0H90h0.7
		c0.5,0,0.8,0,0.9,0c0.4,0.1,0.7,0.1,0.8-0.1c0.1-0.1,0.1-0.1,0.1-0.2C92.4,40.4,92.3,40.3,92,40.3z M88.1,40.8L88.1,40.8L88.1,40.8
		L88.1,40.8z"/>
	<path class="st0" d="M120.5,40.3c-0.6-0.1-1-0.2-1.1-0.4c-0.2-0.2-0.4-0.6-0.7-1.4l-4.3-11c-0.1-0.2-0.2-0.3-0.4-0.3
		s-0.3,0.3-0.4,0.3l-4.9,10.8l-0.3,0.6c-0.1,0.3-0.3,0.6-0.5,0.8c-0.3,0.3-0.4,0.4-0.5,0.4l-0.4,0.1c-0.1,0-0.2,0.2-0.2,0.3
		c0,0.1,0,0.3,0.4,0.3c0,0,0.1,0,0.5-0.1c0.1,0,0.2,0,0.4,0c0.4,0,0.7,0,1,0l0.9,0.1c0.1,0,0.3,0,0.3,0c0.1,0,0.2,0,0.3-0.1
		c0,0,0.1-0.1,0.1-0.2s-0.1-0.3-0.4-0.3c-0.4-0.1-0.7-0.2-0.8-0.3c-0.1-0.1-0.2-0.3-0.2-0.6c0-0.3,0.1-0.8,0.4-1.4l0.6-1.4
		c0.2-0.5,0.4-0.7,0.4-0.7c0.1,0,0.2-0.1,0.8-0.1h3.4c0.5,0,0.6,0.1,0.6,0.1s0.1,0.1,0.3,0.6l0.5,1.3c0.4,1,0.6,1.6,0.6,2
		c0,0.3-0.1,0.5-0.4,0.5l-0.3,0.1c-0.3,0.1-0.3,0.2-0.3,0.3c0,0.1,0,0.3,0.3,0.3c0.1,0,0.2,0,0.3,0c0.2,0,0.8-0.1,1.6-0.1
		s1.4,0,1.7,0c0.2,0,0.3,0,0.4,0c0.3,0,0.4-0.2,0.4-0.3C120.9,40.5,120.9,40.3,120.5,40.3z M115.3,34.6c0,0.1-0.2,0.1-0.4,0.1H112
		h-0.3c-0.3,0-0.3-0.1-0.3-0.1s0-0.1,0.1-0.3l1.8-4.1c0-0.1,0.1-0.1,0.1-0.1s0.1,0.1,0.1,0.2l1.6,3.9v0.2
		C115.3,34.5,115.3,34.6,115.3,34.6z"/>
	<path class="st0" d="M160.3,40.3c-0.5-0.1-0.8-0.2-1-0.4c-0.2-0.2-0.3-0.7-0.3-1.3v-9.2c0-0.3,0.1-0.6,0.2-0.8
		c0.1-0.2,0.3-0.3,0.4-0.4l0.4-0.1c0.3-0.1,0.3-0.2,0.3-0.3c0-0.2-0.1-0.3-0.3-0.3c-0.1,0-0.2,0-0.4,0c-0.3,0-0.7,0.1-1.4,0.1
		c-0.5,0-0.9,0-1.3-0.1c-0.3,0-0.5,0-0.7,0c-0.3,0-0.3,0.2-0.3,0.3s0,0.3,0.4,0.3c0.4,0.1,0.7,0.3,0.9,0.5c0.2,0.3,0.2,0.7,0.2,1.3
		v3.2c0,0.2,0,0.2-0.1,0.3c0,0-0.1,0.1-0.5,0.1h-5.6c-0.5,0-0.6-0.1-0.6-0.1s-0.1-0.1-0.1-0.6v-3.3c0-0.4,0.1-0.8,0.2-0.9
		c0.1-0.2,0.4-0.3,0.8-0.4c0.2-0.1,0.3-0.2,0.3-0.3s0-0.3-0.4-0.3c-0.1,0-0.2,0-0.4,0c-0.4,0.1-0.8,0.1-1.2,0.1
		c-0.7,0-1.2,0-1.7-0.1c-0.2,0-0.4,0-0.6-0.1l0,0c-0.3,0-0.3,0.2-0.3,0.3s0.1,0.3,0.4,0.3c0.5,0.1,0.9,0.2,1.1,0.5
		c0.2,0.2,0.3,0.6,0.3,1.1v8.1c0,0.9-0.1,1.5-0.1,1.8c-0.1,0.3-0.3,0.5-0.5,0.6l-0.5,0.1c-0.3,0.1-0.3,0.2-0.3,0.3
		c0,0.1,0,0.3,0.3,0.3c0.1,0,0.4,0,0.6,0c0.2,0,0.4,0,0.6,0h0.6h0.8c0.6,0,1,0,1.1,0c0.2,0,0.4,0,0.5,0s0.2,0,0.3-0.1
		c0,0,0.1-0.1,0.1-0.2s-0.1-0.3-0.5-0.3c-0.5-0.1-0.9-0.2-1.1-0.5c-0.2-0.2-0.3-0.7-0.3-1.3V35c0-0.4,0.1-0.5,0.1-0.5
		s0.2-0.1,0.6-0.1h5.6c0.4,0,0.5,0,0.5,0.1c0,0,0.1,0.1,0.1,0.4v3.5v0.4c0,0.9-0.3,1.4-0.9,1.5c-0.3,0-0.4,0.1-0.4,0.3
		c0,0.1,0,0.2,0.1,0.2c0.1,0.1,0.1,0.1,0.2,0.1l0,0c0,0,0.2,0,0.7,0c0.2,0,0.3,0,0.4,0h0.7h0.7c0.5,0,0.8,0,0.9,0
		c0.4,0.1,0.7,0.1,0.8-0.1c0.1-0.1,0.1-0.1,0.1-0.2C160.7,40.4,160.6,40.3,160.3,40.3z M156.4,40.8L156.4,40.8L156.4,40.8
		L156.4,40.8z"/>
	<path class="st0" d="M333.8,38L333.8,38c-0.1,0-0.2,0.1-0.3,0.2c-0.7,1.1-2.3,1.6-4.7,1.6c-0.9,0-1.3-0.1-1.4-0.2s-0.2-0.3-0.2-0.9
		v-3.5v-0.3c0-0.2,0-0.2,0.1-0.3c0.1,0,0.2-0.1,0.6-0.1h2.1c0.5,0,0.9,0.1,1.1,0.2c0.2,0.1,0.3,0.4,0.4,0.8l0.1,0.3
		c0,0.2,0.2,0.3,0.3,0.3c0.1,0,0.3,0,0.3-0.3c0-0.1,0-0.2,0-0.3c0-0.4-0.1-0.8-0.1-1.1c0-0.5,0-1.1,0.1-1.7c0-0.1,0-0.2,0-0.2
		c0-0.3-0.2-0.3-0.3-0.4c-0.1,0-0.3,0-0.3,0.3c-0.1,0.5-0.2,0.7-0.3,0.7c-0.1,0.1-0.2,0.2-0.6,0.2c-0.4,0.1-0.9,0.1-1.6,0.1h-1.5
		c-0.4,0-0.4-0.1-0.4-0.1s-0.1-0.1-0.1-0.5V29c0-0.4,0.1-0.5,0.1-0.6c0.1,0,0.2-0.1,0.7-0.1h1.5c1,0,1.6,0,2,0.1
		c0.3,0.1,0.6,0.3,0.7,0.5s0.1,0.4,0.1,0.5v0.2c0,0.3,0.2,0.4,0.3,0.4l0,0c0.1,0,0.3-0.1,0.3-0.2c0-0.1,0.1-0.2,0.1-0.7v-0.6
		c0-0.4,0.1-0.7,0.1-0.7c0-0.1,0-0.2,0-0.2c0-0.2-0.2-0.4-0.4-0.4c-0.1,0-0.2,0-0.4,0c-0.1,0-0.2,0-0.7,0l-1.3,0.1c-0.6,0-1.3,0-2,0
		c-1.3,0-2.4-0.1-3.2-0.2c-0.3,0-0.5,0-0.6,0c-0.5,0-0.5,0.2-0.5,0.4c0,0.1,0,0.3,0.4,0.3c0.5,0,0.9,0.1,1.1,0.4
		c0.2,0.3,0.3,0.9,0.3,1.8v8v0.6c0,0.7-0.2,1.1-0.6,1.2l-0.4,0.1c-0.3,0.1-0.3,0.2-0.3,0.3c0,0.1,0.1,0.3,0.4,0.3
		c0.1,0,0.3,0,0.5-0.1c0.4-0.1,1.2-0.1,2.3-0.1c0.8,0,1.8,0.1,3,0.2c0.3,0,0.6,0,0.7,0c0.9,0,1.6-0.4,2.2-1.1
		c0.5-0.6,0.7-1.1,0.7-1.5C334.1,38.1,333.9,38,333.8,38z"/>
	<path class="st0" d="M321.3,28.5c0-0.5-0.1-0.7-0.1-0.7c-0.1-0.1-0.2-0.1-0.7-0.1h-10.2c-0.3,0-0.4,0.1-0.5,0.2
		c-0.1,0.1-0.1,0.3-0.1,0.6s0,0.7-0.1,1.1c-0.1,0.4-0.1,0.6-0.1,0.8c0,0.3,0.2,0.3,0.3,0.4c0.2,0,0.3-0.3,0.3-0.4
		c0.1-0.5,0.3-0.9,0.5-1.1c0.2-0.2,0.6-0.3,1-0.3h2.5c0.3,0,0.4,0.1,0.4,0.1s0.1,0.1,0.1,0.4v9.6c0,0.5-0.1,0.9-0.2,1
		c-0.2,0.2-0.5,0.3-0.9,0.4c-0.3,0-0.4,0.1-0.4,0.3c0,0.1,0,0.3,0.4,0.3c0.1,0,0.3,0,0.6-0.1c0.2,0,0.4,0,0.7,0h0.7h0.7
		c0.4,0,0.7,0,0.8,0c0.2,0,0.4,0.1,0.5,0.1c0.3,0,0.4-0.2,0.4-0.3c0-0.2-0.1-0.3-0.4-0.3c-0.8-0.1-1.1-0.5-1.2-1.2v-9.7
		c0-0.4,0.1-0.5,0.1-0.5s0.1-0.1,0.5-0.1h2.7c0.5,0,0.8,0.1,1,0.2c0.2,0.1,0.3,0.4,0.4,0.8c0.1,0.3,0.2,0.4,0.3,0.4l0,0
		c0.1,0,0.3-0.1,0.3-0.4c0-0.1,0-0.3-0.1-0.5C321.3,29.2,321.3,28.9,321.3,28.5z"/>
	<path class="st0" d="M105,38L105,38c-0.1,0-0.2,0.1-0.3,0.2c-0.7,1.1-2.3,1.6-4.7,1.6c-0.9,0-1.3-0.1-1.4-0.2s-0.2-0.3-0.2-0.9
		v-3.5v-0.3c0-0.2,0-0.3,0.1-0.3c0,0,0.2-0.1,0.6-0.1h2.1c0.5,0,0.9,0.1,1.1,0.2c0.2,0.1,0.3,0.4,0.4,0.8l0.1,0.3
		c0,0.2,0.2,0.3,0.3,0.3c0.1,0,0.3,0,0.3-0.3c0-0.1,0-0.2,0-0.3c0-0.4-0.1-0.8-0.1-1.1c0-0.5,0-1.1,0.1-1.7c0-0.1,0-0.2,0-0.2
		c0-0.3-0.2-0.3-0.3-0.4c-0.1,0-0.3,0-0.3,0.3c-0.1,0.5-0.2,0.7-0.2,0.7c-0.1,0.1-0.2,0.2-0.6,0.2c-0.4,0.1-0.9,0.1-1.6,0.1h-1.5
		c-0.4,0-0.4-0.1-0.4-0.1s-0.1-0.1-0.1-0.5V29c0-0.4,0.1-0.5,0.1-0.6c0.1,0,0.2-0.1,0.7-0.1h1.5c1,0,1.6,0,2,0.1
		c0.3,0.1,0.6,0.3,0.7,0.5s0.1,0.4,0.1,0.5v0.2c0,0.3,0.2,0.4,0.3,0.4l0,0c0.1,0,0.3-0.1,0.3-0.2c0-0.1,0.1-0.2,0.1-0.7v-0.6
		c0-0.5,0.1-0.7,0.1-0.7c0-0.1,0-0.2,0-0.2c0-0.2-0.2-0.4-0.4-0.4c-0.1,0-0.2,0-0.4,0c-0.1,0-0.2,0-0.7,0l-1.3,0.1c-0.6,0-1.3,0-2,0
		c-1.3,0-2.4-0.1-3.2-0.2c-0.3,0-0.5,0-0.6,0c-0.5,0-0.5,0.2-0.5,0.4c0,0.1,0,0.3,0.4,0.3c0.5,0,0.9,0.1,1.1,0.4
		c0.2,0.3,0.3,0.9,0.3,1.8v8v0.6c0,0.7-0.2,1.1-0.6,1.2L96,39.9c-0.3,0.1-0.3,0.2-0.3,0.3c0,0.1,0.1,0.3,0.4,0.3
		c0.1,0,0.3,0,0.5-0.1c0.4-0.1,1.2-0.1,2.3-0.1c0.8,0,1.8,0.1,3,0.2c0.3,0,0.6,0,0.7,0c0.9,0,1.6-0.4,2.2-1.1
		c0.5-0.6,0.7-1.1,0.7-1.5C105.3,38.1,105.1,38,105,38z"/>
	<path class="st0" d="M306.6,27.5c-0.1,0-0.3,0-0.5,0.1c-0.2,0-0.5,0.1-0.9,0.1c-0.7,0-1.3,0-1.7-0.1c-0.2,0-0.3,0-0.4,0
		c-0.3,0-0.4,0.2-0.4,0.3s0,0.3,0.4,0.3c0.6,0.1,1.1,0.3,1.3,0.5c0.2,0.2,0.4,0.6,0.4,1.1l0.1,2.2v6v0.1c0,0-0.1-0.1-0.2-0.2L296,28
		c-0.2-0.2-0.4-0.3-0.5-0.3s-0.2,0-0.4,0H295h-1c-0.1,0-0.1,0-0.2,0c-0.2,0-0.3,0.1-0.3,0.3c0,0.1,0,0.3,0.3,0.3
		c0.6,0.1,1.1,0.4,1.4,1s0.5,1.5,0.5,2.5v6.4c0,0.7-0.1,1.1-0.3,1.4c-0.2,0.3-0.5,0.5-1,0.7c-0.2,0.1-0.3,0.2-0.3,0.3
		c0,0.1,0.1,0.3,0.4,0.3c0.1,0,0.2,0,0.4,0c0.2,0,0.4,0,0.7,0h0.4h1c0.6,0,0.8,0,0.8,0.1c0.1,0,0.2,0,0.3,0c0.2,0,0.3-0.1,0.3-0.3
		c0-0.1-0.1-0.3-0.4-0.3c-0.5-0.1-0.8-0.2-1-0.3c-0.2-0.1-0.2-0.4-0.3-0.8v-0.7v-6.8c0-0.2,0-0.3,0.1-0.3c0,0,0,0,0.1,0l8.1,9.2
		l0.2,0.3c0.1,0.1,0.2,0.1,0.3,0.1l0,0c0.2,0,0.3-0.1,0.3-0.3c0-0.2,0-0.6,0-1.3v-7.9V31v-1c0-0.6,0.1-1,0.2-1.2s0.3-0.3,0.7-0.4
		c0.2-0.1,0.3-0.2,0.3-0.3C307,27.7,306.9,27.5,306.6,27.5z M305.4,40.8L305.4,40.8L305.4,40.8L305.4,40.8z"/>
	<path class="st0" d="M132.9,38.1c-0.1,0-0.2,0.1-0.4,0.3c-0.2,0.4-0.8,0.8-1.6,1.1c-0.9,0.3-1.9,0.4-3,0.4c-1,0-1.3-0.1-1.4-0.2
		c-0.1-0.1-0.2-0.3-0.2-1.3v-8.6c0-0.9,0.3-1.5,0.8-1.6l0.3-0.1c0.3-0.1,0.4-0.2,0.4-0.4c0-0.1,0-0.2-0.3-0.2c0,0-0.2,0-0.4,0
		c-0.5,0-1,0-1.6,0c-0.5,0-1,0-1.4-0.1c-0.3,0-0.5,0-0.6,0c-0.4,0-0.4,0.2-0.4,0.3s0,0.2,0.3,0.3l0.4,0.1c0.6,0.1,0.9,0.6,0.9,1.4
		V38v0.4c0,0.6-0.1,1-0.2,1.2c-0.1,0.2-0.4,0.4-0.8,0.5c-0.3,0.1-0.3,0.2-0.3,0.3c0,0.1,0,0.3,0.3,0.3l0,0c0.1,0,0.3,0,0.5-0.1
		c0.5-0.1,1.2-0.1,1.9-0.1s1.3,0,1.9,0.1l1,0.1c0.3,0,0.5,0,0.7,0c1.2,0,2.2-0.4,2.7-1.1c0.4-0.5,0.6-1,0.6-1.4
		C133,38.1,133,38,132.9,38.1C133,38.2,133,38.1,132.9,38.1z M123.6,40.8L123.6,40.8L123.6,40.8L123.6,40.8z"/>
	<path class="st0" d="M144.7,28.5c0-0.5-0.1-0.7-0.1-0.7c-0.1-0.1-0.3-0.1-0.7-0.1h-10.2c-0.3,0-0.4,0.1-0.5,0.2
		c-0.1,0.1-0.1,0.3-0.1,0.6s0,0.7-0.1,1.1c-0.1,0.4-0.1,0.6-0.1,0.8c0,0.3,0.2,0.3,0.3,0.4c0.2,0,0.3-0.3,0.3-0.4
		c0.1-0.5,0.3-0.9,0.5-1.1c0.2-0.2,0.6-0.3,1-0.3h2.5c0.3,0,0.4,0.1,0.4,0.1s0.1,0.1,0.1,0.4v9.6c0,0.5-0.1,0.9-0.2,1
		c-0.2,0.2-0.5,0.3-0.9,0.4c-0.3,0-0.4,0.1-0.4,0.3c0,0.1,0,0.3,0.4,0.3c0.1,0,0.3,0,0.6-0.1c0.2,0,0.4,0,0.7,0h0.7h0.7
		c0.4,0,0.7,0,0.8,0c0.2,0,0.4,0.1,0.5,0.1c0.3,0,0.4-0.2,0.4-0.3c0-0.2-0.1-0.3-0.4-0.3c-0.7-0.1-1.1-0.5-1.2-1.2v-9.7
		c0-0.4,0.1-0.5,0.1-0.5s0.1-0.1,0.5-0.1h2.7c0.5,0,0.8,0.1,1,0.2c0.2,0.1,0.3,0.4,0.4,0.8c0.1,0.3,0.2,0.4,0.3,0.4l0,0
		c0.1,0,0.3-0.1,0.3-0.4c0-0.1,0-0.2-0.1-0.5C144.7,29.2,144.7,28.9,144.7,28.5z"/>
	<g>
		<path class="st0" d="M351.4,38.4v0.3h-0.8v2.2h-0.3v-2.2h-0.8v-0.3H351.4z"/>
		<path class="st0" d="M351.7,38.4h0.5l0.7,2.1l0.7-2.1h0.5v2.5h-0.3v-1.4c0-0.1,0-0.1,0-0.2c0-0.1,0-0.2,0-0.4l-0.7,2.1h-0.3
			l-0.7-2.1V39c0,0.1,0,0.2,0,0.3s0,0.2,0,0.3V41h-0.3v-2.6H351.7z"/>
	</g>
</g>
</svg>
